<svg width="24" height="24" viewBox="0 0 24 24" fill="none" xmlns="http://www.w3.org/2000/svg">
<path d="M18.2783 2.19699C18.4197 1.86705 18.1777 1.5 17.8187 1.5H13.375C12.9629 1.5 12.7278 1.97037 12.975 2.29999L15.8025 6.07034C16.0333 6.37804 16.5106 6.32085 16.6621 5.96734L18.2783 2.19699Z" fill="white"/>
<path d="M6.18129 1.5C5.82232 1.5 5.58031 1.86705 5.72173 2.19699L7.33788 5.96734C7.48942 6.32086 7.96668 6.37804 8.19745 6.07034L11.025 2.29999C11.2722 1.97037 11.0371 1.5 10.625 1.5H6.18129Z" fill="white"/>
<path d="M12.4 4.03349C12.2 3.76683 11.8 3.76683 11.6 4.03349L9.60003 6.70002C9.35281 7.02964 9.588 7.50003 10 7.50003H14C14.412 7.50003 14.6472 7.02964 14.4 6.70002L12.4 4.03349Z" fill="white"/>
<path d="M20.3284 3.23521C20.1191 2.88459 19.6004 2.91924 19.4396 3.29459L17.9359 6.80303C17.7945 7.13297 18.0365 7.5 18.3955 7.5H21.9941C22.3823 7.5 22.6224 7.07694 22.4234 6.74366L20.3284 3.23521Z" fill="white"/>
<path d="M4.55724 3.28713C4.39698 2.9132 3.88104 2.87699 3.67012 3.22487L1.53844 6.74077C1.33641 7.07399 1.57632 7.5 1.96599 7.5H5.60453C5.96349 7.5 6.20551 7.13297 6.0641 6.80303L4.55724 3.28713Z" fill="white"/>
<path d="M6.99272 9.33504C6.92259 9.13439 6.73327 9 6.52071 9H2.14396C1.72849 9 1.49427 9.47733 1.74849 9.80594L11.5648 22.4949C11.5673 22.4981 11.5711 22.5 11.5752 22.5C11.5842 22.5 11.5905 22.4911 11.5875 22.4826L6.99272 9.33504Z" fill="white"/>
<path d="M17.4793 9C17.2667 9 17.0774 9.13439 17.0073 9.33504L12.4125 22.4826C12.4095 22.4911 12.4158 22.5 12.4248 22.5C12.4289 22.5 12.4327 22.4981 12.4352 22.4949L22.2515 9.80594C22.5057 9.47733 22.2715 9 21.856 9H17.4793Z" fill="white"/>
<path d="M15.205 9.66637C15.3198 9.34106 15.0785 9 14.7335 9H9.26647C8.92152 9 8.68018 9.34106 8.79496 9.66637L11.5285 17.4137C11.6854 17.8585 12.3146 17.8585 12.4715 17.4137L15.205 9.66637Z" fill="white"/>
</svg>
