<svg width="24" height="24" viewBox="0 0 24 24" fill="none" xmlns="http://www.w3.org/2000/svg">
<path d="M17.6525 9.1942C18.151 9.1942 18.5836 9.36626 18.9501 9.71038C19.3167 10.0545 19.5 10.4606 19.5 10.9286V19.7656C19.5 20.2336 19.3167 20.6397 18.9501 20.9838C18.5836 21.3279 18.151 21.5 17.6525 21.5H6.3915C5.86364 21.5 5.41642 21.3279 5.04985 20.9838C4.68328 20.6397 4.5 20.2336 4.5 19.7656V10.9286C4.5 10.4606 4.68328 10.0545 5.04985 9.71038C5.41642 9.36626 5.86364 9.1942 6.3915 9.1942H7.31525V7.41853C7.31525 6.20722 7.77713 5.16797 8.70088 4.30078C9.62463 3.43359 10.7317 3 12.022 3C13.3123 3 14.412 3.43359 15.3211 4.30078C16.2302 5.16797 16.6848 6.20722 16.6848 7.41853V9.1942H17.6525ZM12 17.1228C12.5132 17.1228 12.9531 16.9507 13.3196 16.6066C13.6862 16.2625 13.8695 15.8426 13.8695 15.3471C13.8695 14.8516 13.6862 14.4317 13.3196 14.0876C12.9531 13.7435 12.5132 13.5714 12 13.5714C11.4868 13.5714 11.0469 13.7435 10.6804 14.0876C10.3138 14.4317 10.1305 14.8516 10.1305 15.3471C10.1305 15.8426 10.3138 16.2625 10.6804 16.6066C11.0469 16.9507 11.4868 17.1228 12 17.1228ZM14.9252 9.1942V7.41853C14.9252 6.67522 14.6393 6.03516 14.0674 5.49833C13.4956 4.9615 12.8065 4.69308 12 4.69308C11.1935 4.69308 10.5117 4.9615 9.95455 5.49833C9.39736 6.03516 9.11877 6.67522 9.11877 7.41853V9.1942H14.9252Z" fill="white"/>
</svg>
