<svg width="24" height="25" viewBox="0 0 24 25" fill="none" xmlns="http://www.w3.org/2000/svg">
<path d="M18.8375 7.65246L13.396 6.71483C12.8517 6.62105 12.3345 6.98624 12.2407 7.5305L10.3062 18.7575C10.2124 19.3017 10.5776 19.819 11.1219 19.9127L16.5634 20.8504L18.8375 7.65246Z" fill="white"/>
<path d="M9.57895 1.3423C9.30682 1.29541 9.0482 1.478 9.00131 1.75013L8.94698 2.06543L8.37928 2.79964L18.6625 4.57154L18.459 3.70444L18.5133 3.38914C18.5602 3.11701 18.3776 2.85839 18.1055 2.8115L15.0782 2.28987L13.8422 2.0769L9.57895 1.3423Z" fill="white"/>
<path d="M5.55754 22.4023C5.63373 22.5158 5.75303 22.5931 5.88769 22.6163L14.2067 24.0497C14.3414 24.0729 14.4797 24.04 14.5895 23.9586L15.3281 23.4109L5.04483 21.639L5.55754 22.4023Z" fill="white"/>
<path d="M18.8375 7.65246L19.0351 6.50612C19.0579 6.37388 19.0538 6.23842 19.0231 6.10778L18.6625 4.57154M18.8375 7.65246L13.396 6.71483C12.8517 6.62105 12.3345 6.98624 12.2407 7.5305L10.3062 18.7575C10.2124 19.3017 10.5776 19.819 11.1219 19.9127L16.5634 20.8504M18.8375 7.65246L16.5634 20.8504M16.5634 20.8504L16.2726 22.5384C16.2507 22.6651 16.1809 22.7785 16.0776 22.8551L15.3281 23.4109M8.37928 2.79964L7.39602 4.07128C7.29611 4.20049 7.22937 4.35221 7.20164 4.51316L4.44683 20.5007C4.425 20.6274 4.45282 20.7577 4.52451 20.8644L5.04483 21.639M8.37928 2.79964L8.94698 2.06543L9.00131 1.75013C9.0482 1.478 9.30682 1.29541 9.57895 1.3423L13.8422 2.0769M8.37928 2.79964L18.6625 4.57154M18.6625 4.57154L18.459 3.70444L18.5133 3.38914C18.5602 3.11701 18.3776 2.85839 18.1055 2.8115L15.0782 2.28987M5.04483 21.639L5.55754 22.4023C5.63373 22.5158 5.75303 22.5931 5.88769 22.6163L14.2067 24.0497C14.3414 24.0729 14.4797 24.04 14.5895 23.9586L15.3281 23.4109M5.04483 21.639L15.3281 23.4109M13.8422 2.0769L15.6674 1.04C15.7351 1.00154 15.8141 0.987753 15.8908 1.00097V1.00097C16.1848 1.05164 16.2723 1.4316 16.03 1.60575L15.0782 2.28987M13.8422 2.0769L15.0782 2.28987" stroke="white"/>
</svg>
